<?xml version="1.0" standalone="no"?>
<!DOCTYPE svg PUBLIC "-//W3C//DTD SVG 20010904//EN"
 "http://www.w3.org/TR/2001/REC-SVG-20010904/DTD/svg10.dtd">
<svg version="1.0" xmlns="http://www.w3.org/2000/svg"
 width="512.000000pt" height="512.000000pt" viewBox="0 0 512.000000 512.000000"
 preserveAspectRatio="xMidYMid meet">
<metadata>
Created by potrace 1.11, written by Peter Selinger 2001-2013
</metadata>
<g transform="translate(0.000000,512.000000) scale(0.100000,-0.100000)"
fill="#000000" stroke="none">
<path d="M1969 3996 c-2 -2 -26 -6 -54 -9 -217 -25 -452 -143 -625 -317 -214
-213 -325 -481 -329 -791 l-1 -65 -46 -22 c-96 -47 -208 -144 -284 -247 -149
-202 -190 -503 -100 -743 100 -268 320 -450 615 -511 34 -7 535 -10 1520 -8
1453 3 1471 3 1540 23 182 54 358 176 443 307 15 23 30 44 33 47 25 20 82 169
104 269 18 84 13 257 -9 346 -55 215 -216 421 -402 512 -44 21 -54 31 -55 52
-4 85 -20 165 -49 249 -85 247 -295 457 -543 543 -218 75 -467 60 -674 -42
l-76 -37 -25 32 c-150 187 -412 348 -637 392 -22 4 -47 9 -55 11 -19 5 -286
13 -291 9z"/>
</g>
</svg>
